<?xml version="1.0" encoding="UTF-8" standalone="no"?>
<!-- Badge adapted from shields.io source at https://img.shields.io/badge/color-blue-blue.svg, which is CC0 licensed (https://github.com/badges/shields/blob/master/LICENSE.md) -->

<svg
   xmlns:dc="http://purl.org/dc/elements/1.1/"
   xmlns:cc="http://creativecommons.org/ns#"
   xmlns:rdf="http://www.w3.org/1999/02/22-rdf-syntax-ns#"
   xmlns:svg="http://www.w3.org/2000/svg"
   xmlns="http://www.w3.org/2000/svg"
   xmlns:sodipodi="http://sodipodi.sourceforge.net/DTD/sodipodi-0.dtd"
   xmlns:inkscape="http://www.inkscape.org/namespaces/inkscape"
   width="117"
   height="20"
   version="1.1"
   id="svg3831"
   sodipodi:docname="colab-badge.svg"
   inkscape:version="0.92.3 (2405546, 2018-03-11)">
  <metadata
     id="metadata3837">
    <rdf:RDF>
      <cc:Work
         rdf:about="">
        <dc:format>image/svg+xml</dc:format>
        <dc:type
           rdf:resource="http://purl.org/dc/dcmitype/StillImage" />
        <dc:title></dc:title>
      </cc:Work>
    </rdf:RDF>
  </metadata>
  <defs
     id="defs3835" />
  <sodipodi:namedview
     pagecolor="#ffffff"
     bordercolor="#666666"
     borderopacity="1"
     objecttolerance="10"
     gridtolerance="10"
     guidetolerance="10"
     inkscape:pageopacity="0"
     inkscape:pageshadow="2"
     inkscape:window-width="3757"
     inkscape:window-height="2082"
     id="namedview3833"
     showgrid="false"
     inkscape:zoom="10.781868"
     inkscape:cx="103.11952"
     inkscape:cy="9.8118323"
     inkscape:window-x="2003"
     inkscape:window-y="41"
     inkscape:window-maximized="1"
     inkscape:current-layer="g3829" />
  <linearGradient
     id="b"
     x2="0"
     y2="100%">
    <stop
       offset="0"
       stop-color="#bbb"
       stop-opacity=".1"
       id="stop3795" />
    <stop
       offset="1"
       stop-opacity=".1"
       id="stop3797" />
  </linearGradient>
  <clipPath
     id="a">
    <rect
       width="117"
       height="20"
       rx="3"
       fill="#fff"
       id="rect3800" />
  </clipPath>
  <g
     clip-path="url(#a)"
     id="g3809">
    <path
       fill="#555"
       d="M0 0h30v20H0z"
       id="path3803" />
    <path
       fill="#007ec6"
       d="M30 0h87v20H30z"
       id="path3805" />
    <path
       fill="url(#b)"
       d="M0 0h117v20H0z"
       id="path3807" />
  </g>
  <g
     font-size="110"
     id="g3829"
     text-anchor="middle"
     font-family="DejaVu Sans,Verdana,Geneva,sans-serif"
     fill="#fff">
    <svg
       x="4px"
       y="0px"
       width="22px"
       height="20px"
       viewBox="-2 0 28 24"
       version="1.1"
       id="svg3821"
       style="background-color: #fff;border-radius: 1px;">
      <path
         style="fill:#ef9008;"
         d="M1.977,16.77c-2.667-2.277-2.605-7.079,0-9.357C2.919,8.057,3.522,9.075,4.49,9.691c-1.152,1.6-1.146,3.201-0.004,4.803C3.522,15.111,2.918,16.126,1.977,16.77z"
         id="path3811" />
      <path
         style="fill:#fdba18;"
         d="M12.257,17.114c-1.767-1.633-2.485-3.658-2.118-6.02c0.451-2.91,2.139-4.893,4.946-5.678c2.565-0.718,4.964-0.217,6.878,1.819c-0.884,0.743-1.707,1.547-2.434,2.446C18.488,8.827,17.319,8.435,16,8.856c-2.404,0.767-3.046,3.241-1.494,5.644c-0.241,0.275-0.493,0.541-0.721,0.826C13.295,15.939,12.511,16.3,12.257,17.114z"
         id="path3813" />
      <path
         style="fill:#ef9008;"
         d="M19.529,9.682c0.727-0.899,1.55-1.703,2.434-2.446c2.703,2.783,2.701,7.031-0.005,9.764c-2.648,2.674-6.936,2.725-9.701,0.115c0.254-0.814,1.038-1.175,1.528-1.788c0.228-0.285,0.48-0.552,0.721-0.826c1.053,0.916,2.254,1.268,3.6,0.83C20.502,14.551,21.151,11.927,19.529,9.682z"
         id="path3815" />
      <path
         style="fill:#fdba18;"
         d="M4.49,9.691C3.522,9.075,2.919,8.057,1.977,7.413c2.209-2.398,5.721-2.942,8.476-1.355c0.555,0.32,0.719,0.606,0.285,1.128c-0.157,0.188-0.258,0.422-0.391,0.631c-0.299,0.47-0.509,1.067-0.929,1.371C8.933,9.539,8.523,8.847,8.021,8.746C6.673,8.475,5.509,8.787,4.49,9.691z"
         id="path3817" />
      <path
         style="fill:#fdba18;"
         d="M1.977,16.77c0.941-0.644,1.545-1.659,2.509-2.277c1.373,1.152,2.85,1.433,4.45,0.499c0.332-0.194,0.503-0.088,0.673,0.19c0.386,0.635,0.753,1.285,1.181,1.89c0.34,0.48,0.222,0.715-0.253,1.006C7.84,19.73,4.205,19.188,1.977,16.77z"
         id="path3819" />
    </svg>
    <text
       x="245"
       y="140"
       transform="scale(.1)"
       textLength="30"
       id="text3823" />
    <text
       x="725"
       y="150"
       transform="matrix(0.1,0,0,0.1,-0.74198649,-0.47708594)"
       textLength="770"
       id="text3825"
       lengthAdjust="spacing"
       style="font-style:normal;font-variant:normal;font-weight:normal;font-stretch:normal;font-size:110px;font-family:'DejaVu Sans', Verdana, Geneva, sans-serif;-inkscape-font-specification:'DejaVu Sans, Verdana, Geneva, sans-serif, Normal';font-variant-ligatures:normal;font-variant-caps:normal;font-variant-numeric:normal;font-feature-settings:normal;text-align:center;writing-mode:lr-tb;text-anchor:middle;fill:#010101;fill-opacity:0.3">
      <tspan
         sodipodi:role="line"
         id="tspan3841"
         x="725"
         y="150">1D Example</tspan>
    </text>
    <text
       x="725"
       y="140"
       transform="matrix(0.1,0,0,0.1,-0.64923818,-0.23845062)"
       textLength="770"
       id="text3827"
       lengthAdjust="spacing"
       style="font-style:normal;font-variant:normal;font-weight:normal;font-stretch:normal;font-size:110px;font-family:'DejaVu Sans', Verdana, Geneva, sans-serif;-inkscape-font-specification:'DejaVu Sans, Verdana, Geneva, sans-serif, Normal';font-variant-ligatures:normal;font-variant-caps:normal;font-variant-numeric:normal;font-feature-settings:normal;text-align:center;writing-mode:lr-tb;text-anchor:middle">
      <tspan
         sodipodi:role="line"
         id="tspan3843"
         x="725"
         y="140">1D Example</tspan>
    </text>
  </g>
</svg>
